<svg xmlns="http://www.w3.org/2000/svg" width="48.668" height="56.052" viewBox="0 0 48.668 56.052">
  <g id="Group_3" data-name="Group 3" transform="translate(-7.759 -4.223)">
    <path id="Path_1" data-name="Path 1" d="M21.125,21.107c-.281.8-.564,1.6-.865,2.368A22.681,22.681,0,0,0,19.5,26.2c-.165.7-.336,1.472-.519,2.3q-.2.918-.431,1.927a78.519,78.519,0,0,1-2.2,8.1,100.357,100.357,0,0,1,30.48,2.955c-.241-5.311-.5-12.292-.533-17.952a13.624,13.624,0,0,0-3.719-9.282,11.79,11.79,0,0,0-6.9-3.85c-6.088-.617-9.233,1.171-11.2,3.661a17.539,17.539,0,0,0-2.407,4.459c-.324.819-.619,1.651-.914,2.488ZM22.948,12.7c2.471-3.133,6.32-5.082,12.924-4.412A13.722,13.722,0,0,1,44,12.759,15.8,15.8,0,0,1,48.3,23.511c.038,6.145.34,13.881.6,19.311a1.083,1.083,0,0,1-.377.881.958.958,0,0,1-.9.188,96.591,96.591,0,0,0-32.7-3.134.979.979,0,0,1-.9-.432,1.108,1.108,0,0,1-.112-1.034,65,65,0,0,0,2.692-9.362c.146-.645.288-1.281.424-1.894.187-.84.363-1.636.529-2.345a24.412,24.412,0,0,1,.85-3.025c.287-.733.559-1.5.844-2.311l.033-.092c.294-.834.6-1.7.943-2.565A19.634,19.634,0,0,1,22.948,12.7ZM36.593,51.922a1.1,1.1,0,0,1,.221.924,11.615,11.615,0,0,1-2.361,4.879,6.685,6.685,0,0,1-6.107,2.493,7.356,7.356,0,0,1-5.533-3.772,11.783,11.783,0,0,1-1.536-5.152,1.087,1.087,0,0,1,.337-.847.963.963,0,0,1,.836-.249c1.526.286,4.035.7,6.586,1a38.254,38.254,0,0,0,6.723.359A.974.974,0,0,1,36.593,51.922Zm-13.141.6a9.386,9.386,0,0,0,1.058,2.806,5.362,5.362,0,0,0,4.068,2.79,4.743,4.743,0,0,0,4.386-1.806,9.052,9.052,0,0,0,1.5-2.592,51.813,51.813,0,0,1-5.649-.417C26.867,53.071,24.949,52.777,23.452,52.522Z" fill="#fff" fill-rule="evenodd"/>
    <path id="Path_2" data-name="Path 2" d="M30.786,41.422a155.817,155.817,0,0,0-19.122-.234A2.073,2.073,0,0,0,9.748,43.15a2.155,2.155,0,0,0,1.687,2.366c4.313.756,12.713,2.165,18.736,2.786s14.519.953,18.887,1.092a2.084,2.084,0,0,0,2.075-1.978A2.144,2.144,0,0,0,49.6,45.1,156.993,156.993,0,0,0,30.786,41.422Zm-19.2-2.359a157.478,157.478,0,0,1,19.385.242,158.647,158.647,0,0,1,19.074,3.721A4.261,4.261,0,0,1,53.1,47.619a4.119,4.119,0,0,1-4.1,3.9c-4.366-.139-12.922-.472-19.018-1.1s-14.555-2.049-18.866-2.8a4.259,4.259,0,0,1-3.339-4.667A4.121,4.121,0,0,1,11.59,39.063ZM33.267,6.813a1.26,1.26,0,0,0-.461.853,1.02,1.02,0,0,1-1.036,1.011,1.037,1.037,0,0,1-.941-1.113,3.431,3.431,0,0,1,1.218-2.425A4.727,4.727,0,0,1,35.875,4.3a3.835,3.835,0,0,1,3.349,2.381,4.521,4.521,0,0,1-.055,3.068.968.968,0,0,1-1.288.588,1.091,1.091,0,0,1-.547-1.384,2.261,2.261,0,0,0,.053-1.481c-.135-.363-.508-.89-1.763-1.063A2.913,2.913,0,0,0,33.267,6.813ZM17.655,11.168a1.107,1.107,0,0,1-.359,1.453c-2.17,1.354-7.025,7.119-6.725,18.8a.992.992,0,1,1-1.979.059c-.317-12.328,4.81-18.893,7.709-20.7A.953.953,0,0,1,17.655,11.168ZM50.6,14.939a.958.958,0,0,1,1.333-.46c2.592,1.43,6.021,7.177,3.761,18.945a.994.994,0,0,1-1.17.826,1.064,1.064,0,0,1-.769-1.256c2.184-11.372-1.3-15.839-2.726-16.624A1.1,1.1,0,0,1,50.6,14.939Z" transform="translate(0 0)" fill="#fff" fill-rule="evenodd"/>
  </g>
</svg>
