<svg id="Group_68" data-name="Group 68" xmlns="http://www.w3.org/2000/svg" width="25.997" height="29.5" viewBox="0 0 25.997 29.5">
  <path id="Path_14" data-name="Path 14" d="M10,0a3.7,3.7,0,0,1,3.688,3.688,3.553,3.553,0,0,1-2.766,3.5v.184a2.56,2.56,0,0,1,1.844.922l2.4,2.4a1.408,1.408,0,0,0,.922.369h3.134V0Z" transform="translate(6.778)" fill="#fff"/>
  <path id="Path_15" data-name="Path 15" d="M21,26.734l-7.006-8.3v4.609a2.836,2.836,0,0,1-2.766,2.766H4.772a1.844,1.844,0,1,1,0-3.687H9.381A.871.871,0,0,0,10.3,21.2V17.516a8.789,8.789,0,0,1,.737-3.687l1.291-2.766H10.856a2.628,2.628,0,0,0-2.213,1.106l-.922,1.291a1.654,1.654,0,0,1-2.213.553,1.6,1.6,0,0,1-.369-2.4l1.106-1.475a6.906,6.906,0,0,1,5.716-2.766H15.65l.184-.553a3.569,3.569,0,0,1-1.844-3.134A3.7,3.7,0,0,1,17.678,0H4.772V9.034L3.666,10.509a3.527,3.527,0,0,0-.738,2.766,3.621,3.621,0,0,0,1.659,2.4v4.609a3.688,3.688,0,0,0,0,7.375V29.5H25.975A6.051,6.051,0,0,1,21,26.734Z" transform="translate(-0.9)" fill="#fff"/>
  <path id="Path_16" data-name="Path 16" d="M12.657,7.975,11.366,6.5,10.26,9.266c-.369.922-.553,1.659,0,2.4l9.034,11.247V9.266H15.422A3.317,3.317,0,0,1,12.657,7.975Z" transform="translate(6.703 5.484)" fill="#fff"/>
</svg>
